<?xml version="1.0" encoding="UTF-8" standalone="no"?>
<!-- Created with Inkscape (http://www.inkscape.org/) -->

<svg
   width="18.814mm"
   height="20mm"
   viewBox="0 0 18.814 20"
   version="1.1"
   id="svg8"
   xmlns="http://www.w3.org/2000/svg"
   xmlns:svg="http://www.w3.org/2000/svg"
   xmlns:rdf="http://www.w3.org/1999/02/22-rdf-syntax-ns#"
   xmlns:cc="http://creativecommons.org/ns#"
   xmlns:dc="http://purl.org/dc/elements/1.1/">
  <defs
     id="defs2">
    <clipPath
       id="clipPath846"
       clipPathUnits="userSpaceOnUse">
      <path
         id="path844"
         d="M 0,612 H 792 V 0 H 0 Z" />
    </clipPath>
  </defs>
  <metadata
     id="metadata5">
    <rdf:RDF>
      <cc:Work
         rdf:about="">
        <dc:format>image/svg+xml</dc:format>
        <dc:type
           rdf:resource="http://purl.org/dc/dcmitype/StillImage" />
      </cc:Work>
    </rdf:RDF>
  </metadata>
  <g
     id="layer1"
     transform="translate(0,-254.479)">
    <path
       style="fill:#397aab;fill-opacity:1;fill-rule:nonzero;stroke:none;stroke-width:0.116727"
       d="m 9.4425608,254.47892 c -1.0501929,0 -1.9015454,0.85135 -1.9015454,1.90155 0,0.77518 0.3737771,3.93817 0.3737771,3.93817 l 1.5277683,1.15519 1.5277692,-1.15519 c 0,0 0.373777,-3.16299 0.373777,-3.93817 0,-1.0502 -0.851352,-1.90155 -1.9015462,-1.90155 z m -7.4321181,3.69212 c -0.6936758,0.0155 -1.36254706,0.38212 -1.73483322,1.02695 -0.56729403,0.98249 -0.23077922,2.23894 0.75182942,2.80624 0.4635231,0.26753 4.0281109,1.71773 4.0281109,1.71773 l 1.7644133,-0.7455 -0.2366455,-1.90069 c 0,0 -3.0381181,-2.36213 -3.5016417,-2.62978 -0.3377716,-0.19501 -0.7078791,-0.28309 -1.0712332,-0.27495 z m 14.7931073,0 c -0.363356,-0.008 -0.733503,0.08 -1.071234,0.27495 -0.463523,0.26765 -3.501471,2.62961 -3.501471,2.62961 l -0.236645,1.90086 1.764243,0.74533 c 0,0 3.564758,-1.44991 4.028281,-1.71756 0.982608,-0.5673 1.319123,-1.82363 0.751829,-2.80624 -0.372286,-0.64476 -1.041326,-1.01139 -1.735003,-1.02695 z m -7.3609892,4.15327 -1.8659801,1.07722 v 2.15478 l 1.8659801,1.07722 1.8659812,-1.07722 v -2.15478 z m -4.387011,2.89396 c 0,0 -3.5645878,1.45002 -4.0281109,1.71756 -0.98260864,0.5673 -1.31912345,1.82375 -0.75182942,2.80624 0.56729354,0.98261 1.82345772,1.3193 2.80606642,0.752 0.4635236,-0.26765 3.5016417,-2.62961 3.5016417,-2.62961 l 0.2366455,-1.90086 z m 8.7028932,0 -1.764243,0.7455 0.236645,1.90069 c 0,0 3.037948,2.36196 3.501471,2.62961 0.982492,0.56718 2.238943,0.23066 2.806237,-0.75183 0.567294,-0.9826 0.230779,-2.23894 -0.751829,-2.80624 -0.463523,-0.26765 -4.028281,-1.71773 -4.028281,-1.71773 z m -4.3158822,2.26575 -1.5277683,1.15536 c 0,0 -0.3737771,3.16298 -0.3737771,3.93817 0,1.05019 0.8513521,1.90137 1.9015454,1.90137 1.0501942,0 1.9015462,-0.85118 1.9015462,-1.90137 0,-0.77519 -0.373777,-3.93817 -0.373777,-3.93817 z"
       id="path956" />
  </g>
</svg>
